<?xml version="1.0" encoding="UTF-8" standalone="no"?>
<!DOCTYPE svg PUBLIC "-//W3C//DTD SVG 1.1//EN" "http://www.w3.org/Graphics/SVG/1.1/DTD/svg11.dtd">
<svg width="100%" height="100%" viewBox="0 0 1110 825" version="1.1" xmlns="http://www.w3.org/2000/svg" xmlns:xlink="http://www.w3.org/1999/xlink" xml:space="preserve" xmlns:serif="http://www.serif.com/" style="fill-rule:evenodd;clip-rule:evenodd;stroke-linejoin:round;stroke-miterlimit:2;">
    <g>
        <g transform="matrix(0.404412,0,0,0.404412,441.207983,-67.132353)">
            <rect x="322" y="166" width="272" height="272"/>
        </g>
        <g transform="matrix(0.404412,0,0,0.404412,584.065126,-67.132353)">
            <rect x="322" y="166" width="272" height="272"/>
        </g>
        <g transform="matrix(0.404412,0,0,0.404412,726.922269,-67.132353)">
            <rect x="322" y="166" width="272" height="272"/>
        </g>
        <g transform="matrix(0.404412,0,0,0.404412,869.779412,-67.132353)">
            <rect x="322" y="166" width="272" height="272"/>
        </g>
        <g transform="matrix(0.404412,0,0,0.404412,-130.220588,-67.132353)">
            <rect x="322" y="166" width="272" height="272"/>
        </g>
        <g transform="matrix(0.404412,0,0,0.404412,12.636555,-67.132353)">
            <rect x="322" y="166" width="272" height="272"/>
        </g>
        <g transform="matrix(0.404412,0,0,0.404412,155.493697,-67.132353)">
            <rect x="322" y="166" width="272" height="272"/>
        </g>
        <g transform="matrix(0.404412,0,0,0.404412,298.35084,-67.132353)">
            <rect x="322" y="166" width="272" height="272"/>
        </g>
    </g>
    <g transform="matrix(1,0,0,1,0,142.857143)">
        <g transform="matrix(0.404412,0,0,0.404412,441.207983,-67.132353)">
            <rect x="322" y="166" width="272" height="272"/>
        </g>
        <g transform="matrix(0.404412,0,0,0.404412,584.065126,-67.132353)">
            <rect x="322" y="166" width="272" height="272"/>
        </g>
        <g transform="matrix(0.404412,0,0,0.404412,726.922269,-67.132353)">
            <rect x="322" y="166" width="272" height="272"/>
        </g>
        <g transform="matrix(0.404412,0,0,0.404412,869.779412,-67.132353)">
            <rect x="322" y="166" width="272" height="272"/>
        </g>
        <g transform="matrix(0.404412,0,0,0.404412,-130.220588,-67.132353)">
            <rect x="322" y="166" width="272" height="272"/>
        </g>
        <g transform="matrix(0.404412,0,0,0.404412,12.636555,-67.132353)">
            <rect x="322" y="166" width="272" height="272"/>
        </g>
        <g transform="matrix(0.404412,0,0,0.404412,155.493697,-67.132353)">
            <rect x="322" y="166" width="272" height="272"/>
        </g>
        <g transform="matrix(0.404412,0,0,0.404412,298.35084,-67.132353)">
            <rect x="322" y="166" width="272" height="272"/>
        </g>
    </g>
    <g transform="matrix(1,0,0,1,0,285.714286)">
        <g transform="matrix(0.404412,0,0,0.404412,441.207983,-67.132353)">
            <rect x="322" y="166" width="272" height="272"/>
        </g>
        <g transform="matrix(0.404412,0,0,0.404412,584.065126,-67.132353)">
            <rect x="322" y="166" width="272" height="272"/>
        </g>
        <g transform="matrix(0.404412,0,0,0.404412,726.922269,-67.132353)">
            <rect x="322" y="166" width="272" height="272"/>
        </g>
        <g transform="matrix(0.404412,0,0,0.404412,869.779412,-67.132353)">
            <rect x="322" y="166" width="272" height="272"/>
        </g>
        <g transform="matrix(0.404412,0,0,0.404412,-130.220588,-67.132353)">
            <rect x="322" y="166" width="272" height="272"/>
        </g>
        <g transform="matrix(0.404412,0,0,0.404412,12.636555,-67.132353)">
            <rect x="322" y="166" width="272" height="272"/>
        </g>
        <g transform="matrix(0.404412,0,0,0.404412,155.493697,-67.132353)">
            <rect x="322" y="166" width="272" height="272"/>
        </g>
        <g transform="matrix(0.404412,0,0,0.404412,298.35084,-67.132353)">
            <rect x="322" y="166" width="272" height="272"/>
        </g>
    </g>
    <g transform="matrix(1,0,0,1,0,428.571429)">
        <g transform="matrix(0.404412,0,0,0.404412,441.207983,-67.132353)">
            <rect x="322" y="166" width="272" height="272"/>
        </g>
        <g transform="matrix(0.404412,0,0,0.404412,584.065126,-67.132353)">
            <rect x="322" y="166" width="272" height="272"/>
        </g>
        <g transform="matrix(0.404412,0,0,0.404412,726.922269,-67.132353)">
            <rect x="322" y="166" width="272" height="272"/>
        </g>
        <g transform="matrix(0.404412,0,0,0.404412,869.779412,-67.132353)">
            <rect x="322" y="166" width="272" height="272"/>
        </g>
        <g transform="matrix(0.404412,0,0,0.404412,-130.220588,-67.132353)">
            <rect x="322" y="166" width="272" height="272"/>
        </g>
        <g transform="matrix(0.404412,0,0,0.404412,12.636555,-67.132353)">
            <rect x="322" y="166" width="272" height="272"/>
        </g>
        <g transform="matrix(0.404412,0,0,0.404412,155.493697,-67.132353)">
            <rect x="322" y="166" width="272" height="272"/>
        </g>
        <g transform="matrix(0.404412,0,0,0.404412,298.35084,-67.132353)">
            <rect x="322" y="166" width="272" height="272"/>
        </g>
    </g>
    <g transform="matrix(1,0,0,1,0,571.428571)">
        <g transform="matrix(0.404412,0,0,0.404412,441.207983,-67.132353)">
            <rect x="322" y="166" width="272" height="272"/>
        </g>
        <g transform="matrix(0.404412,0,0,0.404412,584.065126,-67.132353)">
            <rect x="322" y="166" width="272" height="272"/>
        </g>
        <g transform="matrix(0.404412,0,0,0.404412,726.922269,-67.132353)">
            <rect x="322" y="166" width="272" height="272"/>
        </g>
        <g transform="matrix(0.404412,0,0,0.404412,869.779412,-67.132353)">
            <rect x="322" y="166" width="272" height="272"/>
        </g>
        <g transform="matrix(0.404412,0,0,0.404412,-130.220588,-67.132353)">
            <rect x="322" y="166" width="272" height="272"/>
        </g>
        <g transform="matrix(0.404412,0,0,0.404412,12.636555,-67.132353)">
            <rect x="322" y="166" width="272" height="272"/>
        </g>
        <g transform="matrix(0.404412,0,0,0.404412,155.493697,-67.132353)">
            <rect x="322" y="166" width="272" height="272"/>
        </g>
        <g transform="matrix(0.404412,0,0,0.404412,298.35084,-67.132353)">
            <rect x="322" y="166" width="272" height="272"/>
        </g>
    </g>
    <g transform="matrix(1,0,0,1,0,714.285714)">
        <g transform="matrix(0.404412,0,0,0.404412,441.207983,-67.132353)">
            <rect x="322" y="166" width="272" height="272"/>
        </g>
        <g transform="matrix(0.404412,0,0,0.404412,584.065126,-67.132353)">
            <rect x="322" y="166" width="272" height="272"/>
        </g>
        <g transform="matrix(0.404412,0,0,0.404412,726.922269,-67.132353)">
            <rect x="322" y="166" width="272" height="272"/>
        </g>
        <g transform="matrix(0.404412,0,0,0.404412,869.779412,-67.132353)">
            <rect x="322" y="166" width="272" height="272"/>
        </g>
        <g transform="matrix(0.404412,0,0,0.404412,-130.220588,-67.132353)">
            <rect x="322" y="166" width="272" height="272"/>
        </g>
        <g transform="matrix(0.404412,0,0,0.404412,12.636555,-67.132353)">
            <rect x="322" y="166" width="272" height="272"/>
        </g>
        <g transform="matrix(0.404412,0,0,0.404412,155.493697,-67.132353)">
            <rect x="322" y="166" width="272" height="272"/>
        </g>
        <g transform="matrix(0.404412,0,0,0.404412,298.35084,-67.132353)">
            <rect x="322" y="166" width="272" height="272"/>
        </g>
    </g>
</svg>
